<?xml version="1.0" encoding="UTF-8"?>
<svg width="60px" height="120px" viewBox="0 0 60 120" version="1.1" xmlns="http://www.w3.org/2000/svg" xmlns:xlink="http://www.w3.org/1999/xlink">
    <title>Combined Shape Copy 11</title>
    <g id="00" stroke="none" stroke-width="1" fill="none" fill-rule="evenodd">
        <g id="Sublimio-v3_About_v3" transform="translate(-301.000000, -3138.000000)" fill="#191919">
            <path d="M318.524046,3143.73502 L318.733685,3143.88955 C322.037674,3145.27594 325.191295,3147.00369 328.159898,3149.03365 C326.983052,3147.1363 325.704787,3144.46713 324.297872,3140.67409 C327.900607,3142.11217 328.90928,3143.61194 330.87857,3151.01791 C332.697438,3152.43025 334.435989,3153.96109 336.08584,3155.59981 C335.203716,3153.5278 334.348895,3150.6771 333.553191,3146.69081 C336.994562,3148.77297 337.753459,3150.43037 338.512477,3158.1594 C340.475504,3160.35781 342.290036,3162.71861 343.938681,3165.22211 C343.362309,3162.58233 343.114734,3158.85616 343.453024,3153.37604 C346.785085,3157.00912 347.131543,3159.01136 345.574763,3167.84662 C347.335693,3170.83174 348.869164,3173.99578 350.148442,3177.30811 C351.205568,3180.04596 352.090466,3182.88113 352.783362,3185.79986 C353.024764,3183.1542 353.855084,3179.64914 355.671668,3174.7688 C358.023131,3179.60382 357.814822,3181.48443 353.554277,3189.52409 L353.457516,3188.99149 C354.011788,3191.94594 354.37217,3194.98389 354.525646,3198.08498 C355.302316,3195.38107 357.047124,3191.8337 360.594767,3186.80223 C361.655963,3192.20472 360.950209,3193.97895 354.605476,3200.83541 C354.609257,3201.06335 354.610377,3201.29179 354.610377,3201.52053 C354.617021,3204.976 354.438915,3208.26584 354.085071,3211.40334 C355.149525,3208.76765 357.167042,3205.49294 360.83535,3201.17549 C361.452132,3207.03508 360.609884,3208.82325 353.522627,3215.41805 C353.013967,3218.43685 352.329256,3221.30413 351.470827,3224.0271 C353.083198,3221.76092 355.779805,3219.11904 360.361702,3215.88301 C359.636291,3221.58341 358.432549,3223.08969 350.243119,3227.52207 C348.990302,3230.74423 347.472192,3233.74794 345.693153,3236.5464 C342.794915,3241.11218 339.209798,3245.12401 334.957556,3248.63793 C337.603952,3246.94649 341.731659,3245.4169 348.553191,3244.29526 C345.200483,3250.5683 343.552095,3251.3165 331.638298,3251.64903 C331.966852,3251.21318 332.341791,3250.77849 332.78053,3250.3485 C328.901825,3253.25478 324.522093,3255.7929 319.65579,3258 L318.782008,3255.90316 C329.802288,3250.90887 338.221157,3244.18513 343.865853,3235.28829 C345.517437,3232.68924 346.934354,3229.90103 348.112707,3226.91278 C345.782466,3224.32705 343.693576,3219.58152 342.808511,3208.19499 C347.949076,3212.18759 348.566456,3214.29176 348.112194,3226.91163 C349.680473,3222.93675 350.825722,3218.60775 351.539676,3213.89911 C349.139808,3211.5853 346.55952,3207.20495 343.765957,3197.83287 C348.739139,3200.23046 350.125078,3202.00391 351.933599,3210.86705 C352.257846,3207.90036 352.420939,3204.78837 352.420939,3201.52746 L352.422401,3201.28399 C349.6059,3199.78291 346.125449,3196.34625 341.212766,3187.80501 C346.733471,3188.77031 348.39443,3190.15502 352.371692,3198.93687 C352.257158,3195.96372 351.941228,3193.04097 351.444953,3190.18111 C348.490876,3189.27342 344.555906,3186.58689 338.340426,3179.12738 C343.799154,3178.97649 345.621139,3180.01302 351.01246,3187.94927 C350.368629,3184.89346 349.513734,3181.92944 348.464881,3179.07955 C345.623744,3178.27932 341.713178,3175.99485 335.787234,3170.45483 C340.318777,3169.58704 342.310171,3169.99701 346.635655,3174.64668 C345.692305,3172.58636 344.64292,3170.59479 343.496388,3168.68123 C340.588767,3168.34085 336.40844,3166.66586 329.723404,3161.95578 C333.938207,3160.49485 335.958652,3160.56178 340.526855,3164.19564 C339.105402,3162.24424 337.573905,3160.39477 335.943793,3158.6592 C333.27315,3158.96537 329.3127,3158.24912 322.702128,3155.05808 C326.054765,3153.1029 327.876809,3152.68428 331.826345,3154.7014 C330.668261,3153.69612 329.471294,3152.74361 328.238983,3151.84644 C325.662437,3152.64441 321.616664,3152.70144 314.404255,3150.83937 C317.588293,3148.28102 319.339799,3147.6509 324.228427,3149.19858 C322.44692,3148.13621 320.603811,3147.18349 318.707486,3146.34878 C315.102203,3146.47035 309.841762,3145.00837 301,3139.72466 C307.391245,3136.88452 309.567176,3137.11839 318.524046,3143.73502 Z M334.290536,3227.24791 C337.436813,3234.937 336.950448,3237.24751 329.18203,3249.97772 C328.199237,3245.88697 328.608455,3239.77151 334.290536,3227.24791 Z M358.12766,3230.25627 C356.057053,3237.21174 354.574232,3238.31901 342.808511,3241.28691 C344.354786,3238.01766 347.834741,3234.384 358.12766,3230.25627 Z M340.660704,3216.55153 C345.293229,3223.42527 345.286525,3225.79826 340.268514,3239.94986 C338.478523,3236.14686 337.647216,3230.06066 340.660704,3216.55153 Z M351.720841,3162.73538 C354.489934,3167.06171 354.360406,3169.07314 350.894664,3178.44568 C349.903952,3175.74261 349.648397,3171.38098 351.720841,3162.73538 Z" id="Combined-Shape-Copy-11" transform="translate(331.000000, 3198.000000) scale(-1, 1) translate(-331.000000, -3198.000000) "></path>
        </g>
    </g>
</svg>