<?xml version="1.0" standalone="no"?>
<!DOCTYPE svg PUBLIC "-//W3C//DTD SVG 20010904//EN"
 "http://www.w3.org/TR/2001/REC-SVG-20010904/DTD/svg10.dtd">
<svg version="1.0" xmlns="http://www.w3.org/2000/svg"
 width="600.000000pt" height="600.000000pt" viewBox="0 0 600.000000 600.000000"
 preserveAspectRatio="xMidYMid meet">
<metadata>
Created by potrace 1.14, written by Peter Selinger 2001-2017
</metadata>
<g transform="translate(0.000000,600.000000) scale(0.100000,-0.100000)"
fill="#000000" stroke="none">
<path d="M2798 5786 c-1 -2 -37 -6 -78 -10 -84 -7 -110 -11 -225 -31 -74 -13
-98 -18 -157 -29 -40 -8 -212 -56 -238 -66 -14 -6 -34 -12 -45 -14 -11 -2 -47
-15 -80 -27 -33 -13 -62 -24 -65 -24 -6 -2 -39 -15 -113 -47 -60 -26 -300
-148 -307 -157 -3 -3 -26 -17 -52 -31 -27 -13 -48 -28 -48 -32 0 -5 -5 -8 -10
-8 -6 0 -35 -18 -65 -40 -30 -22 -57 -40 -60 -40 -4 0 -12 -6 -19 -12 -7 -7
-25 -22 -40 -33 -15 -11 -36 -27 -46 -35 -9 -8 -39 -33 -65 -54 -26 -22 -63
-54 -83 -73 -21 -18 -41 -33 -45 -33 -5 0 -5 -4 -2 -10 3 -5 2 -10 -3 -10 -8
0 -112 -96 -112 -104 0 -2 -19 -24 -42 -49 -24 -24 -59 -64 -77 -87 -19 -23
-41 -48 -48 -56 -7 -7 -13 -16 -13 -19 0 -4 -12 -22 -27 -41 -53 -63 -73 -92
-73 -103 0 -6 -4 -11 -10 -11 -5 0 -10 -7 -10 -15 0 -8 -4 -15 -10 -15 -5 0
-10 -7 -10 -15 0 -8 -4 -15 -9 -15 -5 0 -11 -8 -14 -17 -4 -10 -17 -36 -31
-58 -14 -22 -38 -65 -54 -95 -15 -30 -39 -75 -52 -100 -13 -25 -25 -47 -25
-50 -1 -3 -6 -16 -12 -30 -75 -176 -125 -327 -163 -490 -26 -114 -27 -116 -36
-177 -3 -26 -8 -57 -10 -68 -13 -69 -19 -185 -19 -355 0 -210 7 -309 31 -435
8 -44 17 -96 20 -115 26 -163 140 -487 242 -685 42 -82 187 -323 202 -335 3
-3 23 -30 45 -60 21 -30 45 -62 52 -70 7 -8 28 -32 46 -54 207 -247 515 -505
767 -642 19 -10 37 -22 40 -25 14 -15 290 -142 395 -182 111 -42 281 -94 365
-113 19 -4 40 -9 45 -10 25 -7 43 -11 90 -19 28 -5 52 -10 55 -10 219 -55 766
-54 1043 1 42 8 90 18 105 20 120 21 357 93 510 155 103 42 302 140 382 189
36 22 72 43 80 47 23 12 164 107 170 114 3 4 34 28 69 54 35 26 80 61 99 78
60 53 194 180 221 211 14 15 44 48 66 72 46 50 44 48 115 139 30 39 58 72 62
73 5 2 8 8 8 13 0 6 18 34 40 64 22 30 40 57 40 60 0 4 14 26 30 51 34 48 159
288 180 344 7 19 19 49 26 65 26 59 72 195 67 195 -3 0 -1 6 5 13 9 11 26 72
22 79 -1 2 4 17 10 33 12 32 48 197 56 255 2 19 7 46 9 60 13 71 20 194 20
370 0 211 -9 317 -36 460 -6 30 -13 69 -15 85 -7 43 -62 240 -86 310 -29 87
-108 278 -119 291 -5 7 -12 22 -14 34 -2 13 -11 30 -20 40 -8 9 -15 20 -15 24
0 8 -90 169 -99 176 -3 3 -11 14 -17 25 -29 52 -41 71 -61 94 -13 14 -23 31
-23 38 0 6 -3 13 -8 15 -4 2 -31 35 -61 73 -61 79 -65 83 -121 143 -22 24 -40
45 -40 47 0 2 -35 37 -77 78 -143 138 -170 161 -303 260 -58 43 -110 82 -116
86 -37 30 -266 161 -360 206 -198 96 -500 203 -649 230 -22 4 -41 8 -130 25
-66 13 -83 16 -165 25 -30 3 -66 9 -80 12 -26 5 -506 14 -512 9z"/>
</g>
</svg>
