<svg xmlns="http://www.w3.org/2000/svg" xmlns:xlink="http://www.w3.org/1999/xlink" version="1.1" x="0px" y="0px" viewBox="0 0 500 625" style="enable-background:new 0 0 500 500;" xml:space="preserve"><g><path d="M421.7,242.9l-110-110c-3.9-3.9-10.2-3.9-14.1,0c-3.9,3.9-3.9,10.2,0,14.1L400.5,250L297.5,352.9c-3.9,3.9-3.9,10.2,0,14.1   c2,2,4.5,2.9,7.1,2.9s5.1-1,7.1-2.9l110-110C425.6,253.2,425.6,246.8,421.7,242.9z"/><path d="M202.5,132.9c-3.9-3.9-10.2-3.9-14.1,0l-110,110c-3.9,3.9-3.9,10.2,0,14.1l110,110c2,2,4.5,2.9,7.1,2.9s5.1-1,7.1-2.9   c3.9-3.9,3.9-10.2,0-14.1L99.5,250l102.9-102.9C206.4,143.2,206.4,136.8,202.5,132.9z"/></g><text x="0" y="515" fill="#000000" font-size="5px" font-weight="bold" font-family="'Helvetica Neue', Helvetica, Arial-Unicode, Arial, Sans-serif">Created by iconfield</text><text x="0" y="520" fill="#000000" font-size="5px" font-weight="bold" font-family="'Helvetica Neue', Helvetica, Arial-Unicode, Arial, Sans-serif"></text></svg>